<svg viewBox="0 0 128 69" fill="none" xmlns="http://www.w3.org/2000/svg">
    <path d="M127.622 65.7878C126.895 67.5502 125.172 68.6953 123.27 68.6953H88.9178V59.2658H111.889L90.3019 37.6785C89.4256 36.8023 88.9278 35.5975 88.9278 34.3429C88.9278 33.0883 89.4256 31.8934 90.3019 31.0072L114.657 9.41992H128L100.309 34.3429L126.616 60.6499C127.96 61.9941 128.368 64.0254 127.632 65.7878H127.622Z" />
    <path d="M59.2754 55.3622V68.7049L34.3524 41.0238L8.04544 67.3208C6.70122 68.675 4.66994 69.0733 2.90751 68.3464C1.14508 67.6195 0 65.8969 0 63.9851V0H9.4295V52.604L31.0168 31.0168C32.8588 29.1747 35.846 29.1747 37.6881 31.0168L59.2754 55.3622Z" />
    <path d="M63.9949 0C61.396 0 59.2751 2.11093 59.2751 4.71973V68.7148H68.7046V9.43945H127.98V0.00995746H63.9849L63.9949 0Z" fill-opacity="0.6"/>

    <style>
        path { fill: #000; }
        @media (prefers-color-scheme: dark) {
            path { fill: #FFF; }
        }
    </style>
</svg>